<svg width="22" height="23" viewBox="0 0 22 23" fill="none" xmlns="http://www.w3.org/2000/svg">
<path d="M11 21.3542C5.56416 21.3542 1.14583 16.9358 1.14583 11.5C1.14583 6.06417 5.56416 1.64584 11 1.64584C16.4358 1.64584 20.8542 6.06417 20.8542 11.5C20.8542 16.9358 16.4358 21.3542 11 21.3542ZM11 3.02084C6.325 3.02084 2.52083 6.825 2.52083 11.5C2.52083 16.175 6.325 19.9792 11 19.9792C15.675 19.9792 19.4792 16.175 19.4792 11.5C19.4792 6.825 15.675 3.02084 11 3.02084Z" fill="#F9C320"/>
<path d="M9.69834 14.7817C9.515 14.7817 9.34084 14.7083 9.2125 14.58L6.61834 11.9858C6.3525 11.72 6.3525 11.28 6.61834 11.0142C6.88417 10.7483 7.32417 10.7483 7.59 11.0142L9.69834 13.1225L14.41 8.41083C14.6758 8.145 15.1158 8.145 15.3817 8.41083C15.6475 8.67666 15.6475 9.11666 15.3817 9.3825L10.1842 14.58C10.0558 14.7083 9.88167 14.7817 9.69834 14.7817Z" fill="#F9C320"/>
</svg>
