<svg width="20" height="20" viewBox="0 0 20 20" fill="none" xmlns="http://www.w3.org/2000/svg">
<path d="M10 18.9583C5.63334 18.9583 2.08334 15.4083 2.08334 11.0417C2.08334 6.675 5.63334 3.125 10 3.125C14.3667 3.125 17.9167 6.675 17.9167 11.0417C17.9167 15.4083 14.3667 18.9583 10 18.9583ZM10 4.375C6.32501 4.375 3.33334 7.36667 3.33334 11.0417C3.33334 14.7167 6.32501 17.7083 10 17.7083C13.675 17.7083 16.6667 14.7167 16.6667 11.0417C16.6667 7.36667 13.675 4.375 10 4.375Z" fill="#E60A2B"/>
<path d="M10 11.4584C9.65833 11.4584 9.375 11.175 9.375 10.8334V6.66669C9.375 6.32502 9.65833 6.04169 10 6.04169C10.3417 6.04169 10.625 6.32502 10.625 6.66669V10.8334C10.625 11.175 10.3417 11.4584 10 11.4584Z" fill="#E60A2B"/>
<path d="M12.5 2.29169H7.5C7.15833 2.29169 6.875 2.00835 6.875 1.66669C6.875 1.32502 7.15833 1.04169 7.5 1.04169H12.5C12.8417 1.04169 13.125 1.32502 13.125 1.66669C13.125 2.00835 12.8417 2.29169 12.5 2.29169Z" fill="#E60A2B"/>
</svg>
